<?xml version="1.0" encoding="UTF-8" standalone="no"?>
<svg
   xmlns:dc="http://purl.org/dc/elements/1.1/"
   xmlns:cc="http://creativecommons.org/ns#"
   xmlns:rdf="http://www.w3.org/1999/02/22-rdf-syntax-ns#"
   xmlns:svg="http://www.w3.org/2000/svg"
   xmlns="http://www.w3.org/2000/svg"
   width="22"
   height="22"
   viewBox="0 0 22.000001 21.999999"
   id="svg2"
   version="1.1">
  <defs
     id="defs4" />
  <metadata
     id="metadata7">
    <rdf:RDF>
      <cc:Work
         rdf:about="">
        <dc:format>image/svg+xml</dc:format>
        <dc:type
           rdf:resource="http://purl.org/dc/dcmitype/StillImage" />
        <dc:title></dc:title>
      </cc:Work>
    </rdf:RDF>
  </metadata>
  <g
     style="fill:#ffffff"
     id="layer1"
     transform="matrix(0.68291104,0,0,0.68291104,516.57991,-601.96311)">
    <path
       style="fill:#ffffff"
       d="m -726.33331,913.02238 c -0.0823,-0.0313 -2.57067,-1.36452 -5.52993,-2.96256 -2.95925,-1.59805 -6.26439,-3.38145 -7.34476,-3.9631 -1.08036,-0.58166 -2.01706,-1.09479 -2.08155,-1.1403 -0.19655,-0.13869 -0.33117,-0.41501 -0.3307,-0.67875 5.1e-4,-0.28144 0.0739,-0.44577 0.5707,-1.27732 0.42431,-0.71027 0.65082,-0.9535 0.94668,-1.01661 0.26626,-0.0568 0.46666,-0.003 0.90741,0.24399 1.41018,0.78993 4.70437,2.53544 4.82054,2.55429 0.51228,0.0831 1.1171,-0.50242 1.02007,-0.98757 -0.0142,-0.0713 -0.26386,-0.56255 -0.55467,-1.09171 -0.88775,-1.61532 -1.95003,-3.59074 -2.12358,-3.94898 -0.13132,-0.27107 -0.16439,-0.38793 -0.16439,-0.58075 0,-0.35846 0.13793,-0.52489 0.69142,-0.83427 0.2421,-0.13532 0.61312,-0.35257 0.8245,-0.48279 0.33841,-0.20848 0.41642,-0.2388 0.65306,-0.25392 0.33696,-0.0215 0.57731,0.0645 0.78703,0.2816 0.1583,0.16391 0.43778,0.6754 5.52377,10.10938 l 2.60141,4.82533 0,0.32339 c 0,0.28065 -0.0154,0.34663 -0.11648,0.49939 -0.22442,0.33913 -0.74147,0.51825 -1.10053,0.38126 z m -17.42246,-9.42181 c -0.19996,-0.0405 0.10901,0.12316 -6.14911,-3.25693 -5.94021,-3.20838 -5.82993,-3.14273 -5.93529,-3.53398 -0.0892,-0.33134 0.0488,-0.71282 0.34132,-0.94357 0.11258,-0.0888 1.28201,-0.49411 4.73994,-1.6428 2.52476,-0.8387 4.64812,-1.55346 4.71858,-1.58836 0.18051,-0.0894 0.39982,-0.30514 0.48889,-0.4809 0.0416,-0.0822 0.7627,-2.21518 1.60233,-4.73994 0.92439,-2.77962 1.56901,-4.65347 1.63411,-4.75016 0.15352,-0.22805 0.50484,-0.39412 0.75979,-0.35917 0.24409,0.0334 0.47514,0.15296 0.64506,0.33363 0.11287,0.12001 2.38797,4.25859 5.27797,9.60104 1.13286,2.09419 1.14645,2.12655 1.05183,2.50237 -0.0795,0.31546 -0.33489,0.53976 -1.18999,1.04485 -0.82197,0.48552 -1.0149,0.56965 -1.21285,0.52891 -0.26741,-0.0551 -0.423,-0.20344 -0.652,-0.62188 -0.67604,-1.23535 -2.34475,-4.27026 -2.43145,-4.42214 -0.21067,-0.36904 -0.6414,-0.61392 -0.97107,-0.55207 -0.19054,0.0357 -0.40757,0.18412 -0.52569,0.35939 -0.0518,0.0769 -0.35795,0.93156 -0.68028,1.89923 -0.32234,0.96767 -0.63139,1.83157 -0.68679,1.91976 -0.19285,0.30704 -0.35153,0.37927 -2.14116,0.97455 -0.93206,0.31003 -1.7619,0.59769 -1.8441,0.63925 -0.5465,0.27632 -0.67856,1.00804 -0.25117,1.39171 0.0559,0.0503 1.03369,0.59581 2.17277,1.21242 1.13908,0.61662 2.2536,1.22109 2.47672,1.34329 0.3291,0.18023 0.42811,0.25825 0.52456,0.41334 0.13394,0.21539 0.18186,0.43234 0.1422,0.64376 -0.0284,0.15159 -0.90163,1.64487 -1.06296,1.81782 -0.19784,0.21207 -0.5542,0.32488 -0.84216,0.26658 z"
       id="path4182" />
  </g>
</svg>
